<svg width="30" height="30" viewBox="0 0 30 30" fill="none" xmlns="http://www.w3.org/2000/svg">
<g clip-path="url(#clip0)">
<mask id="path-1-inside-1" fill="white">
<path fill-rule="evenodd" clip-rule="evenodd" d="M16.7993 2.55821C14.2655 6.4913 13.9684 11.6694 16.4687 16C18.8086 20.0527 23.0161 22.3549 27.3764 22.4469C26.3016 24.1154 24.8242 25.5598 22.9871 26.6205C16.8193 30.1814 8.93267 28.0682 5.37173 21.9005C1.81079 15.7327 3.92401 7.84607 10.0917 4.28513C12.2067 3.06404 14.5238 2.51017 16.7993 2.55821Z"/>
</mask>
<path d="M16.7993 2.55821L18.4807 3.64136C18.873 3.03239 18.9053 2.25888 18.5652 1.61927C18.2252 0.979657 17.5658 0.573941 16.8416 0.558652L16.7993 2.55821ZM27.3764 22.4469L29.0577 23.5301C29.4501 22.9211 29.4824 22.1476 29.1423 21.508C28.8022 20.8684 28.1429 20.4626 27.4186 20.4474L27.3764 22.4469ZM18.2008 15C16.0897 11.3435 16.3368 6.96915 18.4807 3.64136L15.118 1.47506C12.1943 6.01345 11.8472 11.9952 14.7367 17L18.2008 15ZM27.4186 20.4474C23.7285 20.3695 20.1765 18.4221 18.2008 15L14.7367 17C17.4406 21.6833 22.3037 24.3403 27.3342 24.4465L27.4186 20.4474ZM25.6951 21.3638C24.7885 22.7711 23.5423 23.9905 21.9871 24.8884L23.9871 28.3525C26.106 27.1291 27.8146 25.4597 29.0577 23.5301L25.6951 21.3638ZM21.9871 24.8884C16.7759 27.8971 10.1124 26.1116 7.10378 20.9005L3.63968 22.9005C7.7529 30.0248 16.8627 32.4657 23.9871 28.3525L21.9871 24.8884ZM7.10378 20.9005C4.09512 15.6893 5.88059 9.02584 11.0917 6.01718L9.09174 2.55308C1.96742 6.66631 -0.473549 15.7761 3.63968 22.9005L7.10378 20.9005ZM11.0917 6.01718C12.8815 4.98388 14.8366 4.51722 16.7571 4.55776L16.8416 0.558652C14.211 0.503123 11.532 1.1442 9.09174 2.55308L11.0917 6.01718Z" fill="#24375A" fill-opacity="0.7" mask="url(#path-1-inside-1)"/>
</g>
<defs>
<clipPath id="clip0">
<rect width="30" height="30" fill="white"/>
</clipPath>
</defs>
</svg>
