<svg width="30" height="30" viewBox="0 0 30 30" fill="none" xmlns="http://www.w3.org/2000/svg">
<path fill-rule="evenodd" clip-rule="evenodd" d="M25.9381 25.5494C26.4556 25.5494 26.8756 25.9694 26.8756 26.4869C26.8756 27.0044 26.4556 27.4244 25.9381 27.4244H16.8718C16.3543 27.4244 15.9343 27.0044 15.9343 26.4869C15.9343 25.9694 16.3543 25.5494 16.8718 25.5494H25.9381ZM20.1453 4.56705C20.2078 4.6158 22.2991 6.2408 22.2991 6.2408C23.0591 6.6933 23.6528 7.50205 23.8778 8.45955C24.1016 9.40705 23.9391 10.3846 23.4178 11.2108C23.4144 11.2163 23.4109 11.2218 23.3988 11.238L23.3894 11.2505C23.3048 11.362 22.937 11.827 21.0807 14.1528C21.0635 14.1833 21.0439 14.2118 21.0226 14.2396C20.9913 14.2804 20.9572 14.318 20.9209 14.3523C20.7942 14.5117 20.6605 14.6792 20.5199 14.8553L20.235 15.2121C19.6471 15.9483 18.9498 16.8214 18.1226 17.8568L17.698 18.3882C16.1009 20.3872 14.0555 22.9466 11.4353 26.2246C10.8616 26.9396 10.0016 27.3558 9.07784 27.3671L4.52909 27.4246H4.51659C4.08284 27.4246 3.70534 27.1271 3.60409 26.7033L2.58034 22.3646C2.36909 21.4658 2.57909 20.5383 3.15534 19.8183L14.9303 5.0908C14.9353 5.0858 14.9391 5.07955 14.9441 5.07455C16.2353 3.5308 18.5703 3.3033 20.1453 4.56705ZM13.6175 9.73375L4.61909 20.9896C4.40534 21.2571 4.32659 21.6021 4.40534 21.9333L5.25659 25.5396L9.05534 25.4921C9.41659 25.4883 9.75034 25.3271 9.97159 25.0521C11.1109 23.6265 12.5429 21.8348 14.0152 19.9925L14.536 19.3407L15.0578 18.6878C16.4385 16.9599 17.8026 15.2526 18.9439 13.8236L13.6175 9.73375ZM16.3878 6.2708L14.7888 8.26875L20.1147 12.3574C21.1399 11.0734 21.8142 10.2277 21.8766 10.1471C22.0816 9.81455 22.1616 9.34455 22.0541 8.89205C21.9441 8.4283 21.6553 8.03455 21.2391 7.7833C21.1503 7.72205 19.0441 6.08705 18.9791 6.0358C18.1866 5.4008 17.0303 5.5108 16.3878 6.2708Z" fill="#24375A" fill-opacity="0.7"/>
</svg>
