<svg width="30" height="30" viewBox="0 0 30 30" fill="none" xmlns="http://www.w3.org/2000/svg">
<path fill-rule="evenodd" clip-rule="evenodd" d="M17.146 19.1142C18.651 19.1142 19.876 20.3304 19.876 21.8254V25.6704C19.876 25.9917 20.1335 26.2492 20.4635 26.2567H22.846C24.7235 26.2567 26.2498 24.7492 26.2498 22.8967V11.9917C26.241 11.3542 25.9373 10.7542 25.416 10.3554L17.1748 3.78293C16.0685 2.90668 14.521 2.90668 13.411 3.78544L5.22601 10.3529C4.68476 10.7642 4.38101 11.3642 4.37476 12.0129V22.8967C4.37476 24.7492 5.90101 26.2567 7.77851 26.2567H10.1835C10.5223 26.2567 10.7973 25.9879 10.7973 25.6579C10.7973 25.5854 10.806 25.5129 10.821 25.4442V21.8254C10.821 20.3392 12.0385 19.1242 13.5323 19.1142H17.146ZM22.846 28.1317H20.441C19.0635 28.0992 18.001 27.0179 18.001 25.6704V21.8254C18.001 21.3642 17.6173 20.9892 17.146 20.9892H13.5385C13.0773 20.9917 12.696 21.3679 12.696 21.8254V25.6579C12.696 25.7517 12.6835 25.8417 12.6573 25.9267C12.5223 27.1642 11.4648 28.1317 10.1835 28.1317H7.77851C4.86726 28.1317 2.49976 25.7829 2.49976 22.8967V12.0042C2.51226 10.7617 3.08476 9.62419 4.07351 8.87544L12.2423 2.31918C14.041 0.894185 16.5473 0.894185 18.3423 2.31668L26.5698 8.87919C27.536 9.61544 28.1085 10.7504 28.1248 11.9779V22.8967C28.1248 25.7829 25.7573 28.1317 22.846 28.1317Z" fill="#36DCB4"/>
</svg>
