<svg width="30" height="30" viewBox="0 0 30 30" fill="none" xmlns="http://www.w3.org/2000/svg">
<path fill-rule="evenodd" clip-rule="evenodd" d="M20.4175 2.5C24.6537 2.5 27.5 5.4725 27.5 9.895V20.105C27.5 24.5275 24.6537 27.5 20.415 27.5H9.58C5.345 27.5 2.5 24.5275 2.5 20.105V9.895C2.5 5.4725 5.345 2.5 9.58 2.5H20.4175ZM20.4175 4.375H9.58C6.41875 4.375 4.375 6.54125 4.375 9.895V20.105C4.375 23.4587 6.41875 25.625 9.58 25.625H20.415C23.58 25.625 25.625 23.4587 25.625 20.105V9.895C25.625 6.54125 23.58 4.375 20.4175 4.375ZM14.9925 14.0625C15.51 14.0625 15.93 14.4825 15.93 15V20C15.93 20.5175 15.51 20.9375 14.9925 20.9375C14.475 20.9375 14.055 20.5175 14.055 20V15C14.055 14.4825 14.475 14.0625 14.9925 14.0625ZM14.9986 9.00513C15.6899 9.00513 16.2486 9.56388 16.2486 10.2551C16.2486 10.9464 15.6899 11.5051 14.9986 11.5051C14.3074 11.5051 13.7424 10.9464 13.7424 10.2551C13.7424 9.56388 14.2961 9.00513 14.9861 9.00513H14.9986Z" fill="#24375A" fill-opacity="0.7"/>
</svg>
