<svg width="30" height="30" viewBox="0 0 30 30" fill="none" xmlns="http://www.w3.org/2000/svg">
<path fill-rule="evenodd" clip-rule="evenodd" d="M20.8235 2.5C24.986 2.5 28.1248 5.89625 28.1248 10.4V18.985C28.1248 21.29 27.3098 23.3725 25.8285 24.85C24.4998 26.1737 22.776 26.875 20.8435 26.875H8.52726C6.59851 26.875 4.87601 26.175 3.54601 24.85C2.06476 23.3725 1.24976 21.29 1.24976 18.985V10.4C1.24976 5.89625 4.38851 2.5 8.55101 2.5H20.8235ZM20.8235 4.375H8.55101C5.40726 4.375 3.12476 6.90875 3.12476 10.4V18.985C3.12476 20.7887 3.74476 22.4 4.86976 23.5212C5.83976 24.49 7.10601 25 8.53101 25H20.8235C20.826 24.9975 20.836 25 20.8435 25C22.2698 25 23.5348 24.49 24.5048 23.5212C25.631 22.4 26.2498 20.7887 26.2498 18.985V10.4C26.2498 6.90875 23.9673 4.375 20.8235 4.375ZM22.7935 10.161C23.1198 10.5623 23.0585 11.1522 22.6573 11.4797L17.1023 15.9948C16.3998 16.5522 15.5598 16.831 14.721 16.831C13.8848 16.831 13.051 16.5547 12.3535 16.0022L6.74726 11.4822C6.34351 11.1572 6.28101 10.566 6.60476 10.1635C6.93101 9.76225 7.52101 9.6985 7.92351 10.0222L13.5248 14.5372C14.2285 15.0947 15.2198 15.0948 15.9285 14.5323L21.4735 10.0248C21.876 9.696 22.466 9.7585 22.7935 10.161Z" fill="#24375A" fill-opacity="0.7"/>
</svg>
