<svg width="30" height="30" viewBox="0 0 30 30" fill="none" xmlns="http://www.w3.org/2000/svg">
<path fill-rule="evenodd" clip-rule="evenodd" d="M15.3125 2.5C22.3775 2.5 28.125 8.2475 28.125 15.3125C28.125 22.3775 22.3775 28.125 15.3125 28.125C8.2475 28.125 2.5 22.3775 2.5 15.3125C2.5 8.2475 8.2475 2.5 15.3125 2.5ZM15.3125 4.375C9.28125 4.375 4.375 9.28125 4.375 15.3125C4.375 21.3438 9.28125 26.25 15.3125 26.25C21.3438 26.25 26.25 21.3438 26.25 15.3125C26.25 9.28125 21.3438 4.375 15.3125 4.375ZM14.7885 10.9517C15.4385 11.223 19.9997 13.5593 19.9997 15.3068C19.9997 16.9443 15.8947 19.2343 14.846 19.6717C14.4372 19.8417 13.971 20.0018 13.5347 20.0018C13.1972 20.0018 12.8772 19.9055 12.616 19.6455C12.4148 19.4468 11.8772 18.9155 11.8747 15.4167C11.8735 11.7017 12.4323 11.1493 12.616 10.9655C13.2698 10.318 14.3348 10.7618 14.7885 10.9517ZM13.9172 12.608C13.696 13.8593 13.6923 16.848 13.9135 18.0355C15.011 17.648 17.3885 16.0855 18.0285 15.3118C17.391 14.5605 15.0435 13.0305 13.9172 12.608Z" fill="#36DCB4"/>
</svg>
