<svg width="30" height="30" viewBox="0 0 30 30" fill="none" xmlns="http://www.w3.org/2000/svg">
<path d="M15.8965 2.50012C16.8418 2.50012 17.6977 3.02512 18.1704 3.80012C18.4003 4.17512 18.5536 4.63762 18.5153 5.12512C18.4897 5.50012 18.6047 5.87512 18.8091 6.22512C19.4606 7.28762 20.9041 7.68762 22.0283 7.08762C23.2929 6.36262 24.8898 6.80012 25.6179 8.03762L26.4738 9.51262C27.2147 10.7501 26.8059 12.3376 25.5285 13.0501C24.4427 13.6876 24.0594 15.1001 24.7109 16.1751C24.9153 16.5126 25.1452 16.8001 25.5029 16.9751C25.95 17.2126 26.2949 17.5876 26.5377 17.9626C27.0103 18.7376 26.972 19.6876 26.5121 20.5251L25.6179 22.0251C25.1452 22.8251 24.2638 23.3251 23.3568 23.3251C22.9097 23.3251 22.4115 23.2001 22.0027 22.9501C21.6706 22.7376 21.2874 22.6626 20.8786 22.6626C19.6139 22.6626 18.5536 23.7001 18.5153 24.9376C18.5153 26.3751 17.34 27.5001 15.871 27.5001H14.1337C12.6518 27.5001 11.4766 26.3751 11.4766 24.9376C11.451 23.7001 10.3907 22.6626 9.12606 22.6626C8.70451 22.6626 8.32127 22.7376 8.00191 22.9501C7.59313 23.2001 7.08215 23.3251 6.64782 23.3251C5.72806 23.3251 4.84662 22.8251 4.37396 22.0251L3.49252 20.5251C3.01987 19.7126 2.99432 18.7376 3.46698 17.9626C3.67137 17.5876 4.0546 17.2126 4.48893 16.9751C4.84662 16.8001 5.07656 16.5126 5.29372 16.1751C5.93245 15.1001 5.54921 13.6876 4.46338 13.0501C3.19871 12.3376 2.78993 10.7501 3.51807 9.51262L4.37396 8.03762C5.11488 6.80012 6.69892 6.36262 7.97636 7.08762C9.08774 7.68762 10.5313 7.28762 11.1828 6.22512C11.3871 5.87512 11.5021 5.50012 11.4766 5.12512C11.451 4.63762 11.5915 4.17512 11.8343 3.80012C12.3069 3.02512 13.1628 2.52512 14.0953 2.50012H15.8965ZM15.0151 11.4751C13.0095 11.4751 11.3871 13.0501 11.3871 15.0126C11.3871 16.9751 13.0095 18.5376 15.0151 18.5376C17.0207 18.5376 18.6047 16.9751 18.6047 15.0126C18.6047 13.0501 17.0207 11.4751 15.0151 11.4751Z" fill="#36DCB4"/>
</svg>
