<svg width="40" height="40" viewBox="0 0 40 40" fill="none" xmlns="http://www.w3.org/2000/svg">
<path d="M24.9449 6.68263L25.3566 7.06801L25.9203 7.08666L32.6894 7.31062L32.9133 14.0797L32.932 14.6434L33.3174 15.0551L37.9455 20L33.3174 24.9449L32.932 25.3566L32.9133 25.9203L32.6894 32.6894L25.9203 32.9133L25.3566 32.932L24.9449 33.3174L20 37.9455L15.0551 33.3174L14.6434 32.932L14.0797 32.9133L7.31062 32.6894L7.08666 25.9203L7.06801 25.3566L6.68263 24.9449L2.05451 20L6.68263 15.0551L7.06801 14.6434L7.08666 14.0797L7.31062 7.31062L14.0797 7.08666L14.6434 7.06801L15.0551 6.68263L20 2.05451L24.9449 6.68263Z" stroke="#36DCB4" stroke-width="3"/>
</svg>
