<svg width="100" height="43" viewBox="0 0 100 43" fill="none" xmlns="http://www.w3.org/2000/svg">
<path d="M5 35L5 0" stroke="#A6EAD9"/>
<path d="M5 33L6.85152 35.4516L9.75528 36.4549L7.99583 38.9734L7.93893 42.0451L5 41.15L2.06107 42.0451L2.00417 38.9734L0.244718 36.4549L3.14848 35.4516L5 33Z" fill="#FFF6A9"/>
<path d="M95 35L95 0" stroke="#A6EAD9"/>
<path d="M95 33L96.8515 35.4516L99.7553 36.4549L97.9958 38.9734L97.9389 42.0451L95 41.15L92.0611 42.0451L92.0042 38.9734L90.2447 36.4549L93.1485 35.4516L95 33Z" fill="#FFF6A9"/>
<path d="M35 23L35 0" stroke="#A6EAD9"/>
<path d="M35 21L36.8515 23.4516L39.7553 24.4549L37.9958 26.9734L37.9389 30.0451L35 29.15L32.0611 30.0451L32.0042 26.9734L30.2447 24.4549L33.1485 23.4516L35 21Z" fill="#FFF6A9"/>
<path d="M65 23L65 0" stroke="#A6EAD9"/>
<path d="M65 21L66.8515 23.4516L69.7553 24.4549L67.9958 26.9734L67.9389 30.0451L65 29.15L62.0611 30.0451L62.0042 26.9734L60.2447 24.4549L63.1485 23.4516L65 21Z" fill="#FFF6A9"/>
</svg>
